<mxfile host="app.diagrams.net" agent="Mozilla/5.0 (Windows NT 10.0; Win64; x64) AppleWebKit/537.36 (KHTML, like Gecko) Chrome/137.0.0.0 Safari/537.36" version="27.1.5">
  <diagram name="Page-1" id="n003MWZ0Or8rVEStpQpT">
    <mxGraphModel dx="1426" dy="783" grid="1" gridSize="10" guides="1" tooltips="1" connect="1" arrows="1" fold="1" page="1" pageScale="1" pageWidth="850" pageHeight="1100" math="0" shadow="0">
      <root>
        <mxCell id="0" />
        <mxCell id="1" parent="0" />
        <mxCell id="ydxDYgTFajhi3IDyPIyk-2" value="&lt;font style=&quot;font-size: 19px;&quot;&gt;React Component Diagram&lt;/font&gt;" style="text;html=1;align=center;verticalAlign=middle;whiteSpace=wrap;rounded=0;" vertex="1" parent="1">
          <mxGeometry x="425" y="40" width="250" height="50" as="geometry" />
        </mxCell>
        <mxCell id="ydxDYgTFajhi3IDyPIyk-12" style="edgeStyle=orthogonalEdgeStyle;rounded=0;orthogonalLoop=1;jettySize=auto;html=1;" edge="1" parent="1" source="ydxDYgTFajhi3IDyPIyk-4" target="ydxDYgTFajhi3IDyPIyk-1">
          <mxGeometry relative="1" as="geometry" />
        </mxCell>
        <mxCell id="ydxDYgTFajhi3IDyPIyk-17" style="edgeStyle=orthogonalEdgeStyle;rounded=0;orthogonalLoop=1;jettySize=auto;html=1;entryX=0.5;entryY=0;entryDx=0;entryDy=0;" edge="1" parent="1" source="ydxDYgTFajhi3IDyPIyk-4" target="ydxDYgTFajhi3IDyPIyk-16">
          <mxGeometry relative="1" as="geometry" />
        </mxCell>
        <mxCell id="ydxDYgTFajhi3IDyPIyk-4" value="HomeScreen" style="rounded=0;whiteSpace=wrap;html=1;" vertex="1" parent="1">
          <mxGeometry x="130" y="280" width="120" height="50" as="geometry" />
        </mxCell>
        <mxCell id="ydxDYgTFajhi3IDyPIyk-24" style="edgeStyle=orthogonalEdgeStyle;rounded=0;orthogonalLoop=1;jettySize=auto;html=1;entryX=0.5;entryY=0;entryDx=0;entryDy=0;" edge="1" parent="1" source="ydxDYgTFajhi3IDyPIyk-5" target="ydxDYgTFajhi3IDyPIyk-4">
          <mxGeometry relative="1" as="geometry" />
        </mxCell>
        <mxCell id="ydxDYgTFajhi3IDyPIyk-25" style="edgeStyle=orthogonalEdgeStyle;rounded=0;orthogonalLoop=1;jettySize=auto;html=1;" edge="1" parent="1" source="ydxDYgTFajhi3IDyPIyk-5" target="ydxDYgTFajhi3IDyPIyk-23">
          <mxGeometry relative="1" as="geometry" />
        </mxCell>
        <mxCell id="ydxDYgTFajhi3IDyPIyk-5" value="Root" style="rounded=0;whiteSpace=wrap;html=1;" vertex="1" parent="1">
          <mxGeometry x="490" y="120" width="120" height="50" as="geometry" />
        </mxCell>
        <mxCell id="ydxDYgTFajhi3IDyPIyk-21" style="edgeStyle=orthogonalEdgeStyle;rounded=0;orthogonalLoop=1;jettySize=auto;html=1;entryX=0.5;entryY=0;entryDx=0;entryDy=0;" edge="1" parent="1" source="ydxDYgTFajhi3IDyPIyk-16" target="ydxDYgTFajhi3IDyPIyk-20">
          <mxGeometry relative="1" as="geometry" />
        </mxCell>
        <mxCell id="ydxDYgTFajhi3IDyPIyk-16" value="List" style="rounded=0;whiteSpace=wrap;html=1;" vertex="1" parent="1">
          <mxGeometry x="240" y="400" width="120" height="50" as="geometry" />
        </mxCell>
        <mxCell id="ydxDYgTFajhi3IDyPIyk-20" value="ListItem" style="rounded=0;whiteSpace=wrap;html=1;" vertex="1" parent="1">
          <mxGeometry x="240" y="520" width="120" height="50" as="geometry" />
        </mxCell>
        <mxCell id="ydxDYgTFajhi3IDyPIyk-22" value="" style="group" vertex="1" connectable="0" parent="1">
          <mxGeometry x="30" y="400" width="160" height="130" as="geometry" />
        </mxCell>
        <mxCell id="ydxDYgTFajhi3IDyPIyk-1" value="H1" style="rounded=0;whiteSpace=wrap;html=1;" vertex="1" parent="ydxDYgTFajhi3IDyPIyk-22">
          <mxGeometry width="120" height="55.714285714285715" as="geometry" />
        </mxCell>
        <mxCell id="ydxDYgTFajhi3IDyPIyk-10" value="H2" style="rounded=0;whiteSpace=wrap;html=1;" vertex="1" parent="ydxDYgTFajhi3IDyPIyk-22">
          <mxGeometry x="20" y="37.142857142857146" width="120" height="55.714285714285715" as="geometry" />
        </mxCell>
        <mxCell id="ydxDYgTFajhi3IDyPIyk-11" value="H3" style="rounded=0;whiteSpace=wrap;html=1;" vertex="1" parent="ydxDYgTFajhi3IDyPIyk-22">
          <mxGeometry x="40" y="74.28571428571429" width="120" height="55.714285714285715" as="geometry" />
        </mxCell>
        <mxCell id="ydxDYgTFajhi3IDyPIyk-28" style="edgeStyle=orthogonalEdgeStyle;rounded=0;orthogonalLoop=1;jettySize=auto;html=1;entryX=0.5;entryY=0;entryDx=0;entryDy=0;" edge="1" parent="1" source="ydxDYgTFajhi3IDyPIyk-23" target="ydxDYgTFajhi3IDyPIyk-26">
          <mxGeometry relative="1" as="geometry" />
        </mxCell>
        <mxCell id="ydxDYgTFajhi3IDyPIyk-35" style="edgeStyle=orthogonalEdgeStyle;rounded=0;orthogonalLoop=1;jettySize=auto;html=1;entryX=0.5;entryY=0;entryDx=0;entryDy=0;" edge="1" parent="1" source="ydxDYgTFajhi3IDyPIyk-23" target="ydxDYgTFajhi3IDyPIyk-34">
          <mxGeometry relative="1" as="geometry" />
        </mxCell>
        <mxCell id="ydxDYgTFajhi3IDyPIyk-45" style="edgeStyle=orthogonalEdgeStyle;rounded=0;orthogonalLoop=1;jettySize=auto;html=1;" edge="1" parent="1" source="ydxDYgTFajhi3IDyPIyk-23" target="ydxDYgTFajhi3IDyPIyk-36">
          <mxGeometry relative="1" as="geometry" />
        </mxCell>
        <mxCell id="ydxDYgTFajhi3IDyPIyk-23" value="CardView" style="rounded=0;whiteSpace=wrap;html=1;" vertex="1" parent="1">
          <mxGeometry x="880" y="270" width="120" height="50" as="geometry" />
        </mxCell>
        <mxCell id="ydxDYgTFajhi3IDyPIyk-44" style="edgeStyle=orthogonalEdgeStyle;rounded=0;orthogonalLoop=1;jettySize=auto;html=1;entryX=0.5;entryY=0;entryDx=0;entryDy=0;" edge="1" parent="1" source="ydxDYgTFajhi3IDyPIyk-26" target="ydxDYgTFajhi3IDyPIyk-37">
          <mxGeometry relative="1" as="geometry" />
        </mxCell>
        <mxCell id="ydxDYgTFajhi3IDyPIyk-26" value="Card" style="rounded=0;whiteSpace=wrap;html=1;" vertex="1" parent="1">
          <mxGeometry x="595" y="400" width="120" height="50" as="geometry" />
        </mxCell>
        <mxCell id="ydxDYgTFajhi3IDyPIyk-47" value="" style="edgeStyle=orthogonalEdgeStyle;rounded=0;orthogonalLoop=1;jettySize=auto;html=1;" edge="1" parent="1" source="ydxDYgTFajhi3IDyPIyk-34" target="ydxDYgTFajhi3IDyPIyk-46">
          <mxGeometry relative="1" as="geometry" />
        </mxCell>
        <mxCell id="ydxDYgTFajhi3IDyPIyk-34" value="CardbackgroundList" style="rounded=0;whiteSpace=wrap;html=1;" vertex="1" parent="1">
          <mxGeometry x="880" y="400" width="120" height="50" as="geometry" />
        </mxCell>
        <mxCell id="ydxDYgTFajhi3IDyPIyk-54" value="" style="edgeStyle=orthogonalEdgeStyle;rounded=0;orthogonalLoop=1;jettySize=auto;html=1;" edge="1" parent="1" source="ydxDYgTFajhi3IDyPIyk-36" target="ydxDYgTFajhi3IDyPIyk-53">
          <mxGeometry relative="1" as="geometry" />
        </mxCell>
        <mxCell id="ydxDYgTFajhi3IDyPIyk-36" value="CardStyleList" style="rounded=0;whiteSpace=wrap;html=1;" vertex="1" parent="1">
          <mxGeometry x="1110" y="400" width="120" height="50" as="geometry" />
        </mxCell>
        <mxCell id="ydxDYgTFajhi3IDyPIyk-42" style="edgeStyle=orthogonalEdgeStyle;rounded=0;orthogonalLoop=1;jettySize=auto;html=1;" edge="1" parent="1" source="ydxDYgTFajhi3IDyPIyk-37" target="ydxDYgTFajhi3IDyPIyk-39">
          <mxGeometry relative="1" as="geometry" />
        </mxCell>
        <mxCell id="ydxDYgTFajhi3IDyPIyk-43" style="edgeStyle=orthogonalEdgeStyle;rounded=0;orthogonalLoop=1;jettySize=auto;html=1;" edge="1" parent="1" source="ydxDYgTFajhi3IDyPIyk-37" target="ydxDYgTFajhi3IDyPIyk-40">
          <mxGeometry relative="1" as="geometry" />
        </mxCell>
        <mxCell id="ydxDYgTFajhi3IDyPIyk-37" value="BusinessCard" style="rounded=0;whiteSpace=wrap;html=1;" vertex="1" parent="1">
          <mxGeometry x="595" y="510" width="120" height="50" as="geometry" />
        </mxCell>
        <mxCell id="ydxDYgTFajhi3IDyPIyk-38" value="CardPic" style="rounded=0;whiteSpace=wrap;html=1;" vertex="1" parent="1">
          <mxGeometry x="475" y="610" width="105" height="50" as="geometry" />
        </mxCell>
        <mxCell id="ydxDYgTFajhi3IDyPIyk-39" value="Title" style="rounded=0;whiteSpace=wrap;html=1;" vertex="1" parent="1">
          <mxGeometry x="602.5" y="610" width="105" height="50" as="geometry" />
        </mxCell>
        <mxCell id="ydxDYgTFajhi3IDyPIyk-40" value="Icon" style="rounded=0;whiteSpace=wrap;html=1;" vertex="1" parent="1">
          <mxGeometry x="725" y="610" width="105" height="50" as="geometry" />
        </mxCell>
        <mxCell id="ydxDYgTFajhi3IDyPIyk-41" style="edgeStyle=orthogonalEdgeStyle;rounded=0;orthogonalLoop=1;jettySize=auto;html=1;entryX=0.433;entryY=0.06;entryDx=0;entryDy=0;entryPerimeter=0;" edge="1" parent="1" source="ydxDYgTFajhi3IDyPIyk-37" target="ydxDYgTFajhi3IDyPIyk-38">
          <mxGeometry relative="1" as="geometry" />
        </mxCell>
        <mxCell id="ydxDYgTFajhi3IDyPIyk-46" value="ColorItem" style="whiteSpace=wrap;html=1;rounded=0;" vertex="1" parent="1">
          <mxGeometry x="880" y="520" width="120" height="50" as="geometry" />
        </mxCell>
        <mxCell id="ydxDYgTFajhi3IDyPIyk-53" value="CardStyleListItem" style="whiteSpace=wrap;html=1;rounded=0;" vertex="1" parent="1">
          <mxGeometry x="1110" y="520" width="120" height="50" as="geometry" />
        </mxCell>
      </root>
    </mxGraphModel>
  </diagram>
</mxfile>
